# xmcd CD database file
#
# Track frame offsets:
#	150
#	17882
#	36025
#	53782
#	66290
#	95712
#	111770
#	136165
#	148602
#	167160
#	186172
#	202792
#	218087
#	234517
#
# Disc length: 3258 seconds
#
# Revision: 1
# Processed by: cddbd v1.5.1PL0 Copyright (c) Steve Scherf et al.
# Submitted via: CDex 1.51
#
DISCID=c50cb80e
DTITLE=Ludwig Seuss - Be My Guest
DYEAR=2000
DGENRE=Blues
TTITLE0=Be My Guest
TTITLE1=Low Down Zydeco - Part 2
TTITLE2=Love Potion no.9
TTITLE3=Too Much Boogie
TTITLE4=Just Wanna Make Love To You
TTITLE5=Big Secret
TTITLE6=Wintertime Blues
TTITLE7=Boogie Woogie Country Girl
TTITLE8=Honey Bee
TTITLE9=41 Days
TTITLE10=Lost Highway
TTITLE11=Walkin´ To My Baby
TTITLE12=All About My Girl
TTITLE13=Ridin´ Alone
EXTD=YEAR: 2000
EXTT0=
EXTT1=
EXTT2=
EXTT3=
EXTT4=
EXTT5=
EXTT6=
EXTT7=
EXTT8=
EXTT9=
EXTT10=
EXTT11=
EXTT12=
EXTT13=
PLAYORDER=
